<svg width="233" height="40" viewBox="0 0 233 40" fill="none" xmlns="http://www.w3.org/2000/svg">
<path d="M44.0547 34.82C44.1321 34.5412 44.1709 34.3012 44.1709 34.0999V3.83275C44.1709 3.49206 44.1399 3.10492 44.0779 2.67131C44.0315 2.22222 43.8766 1.8041 43.6134 1.41696C43.3501 1.01432 42.9397 0.681378 42.3822 0.418118C41.8248 0.139373 41.0427 0 40.0361 0C39.3857 0 38.7663 0.0696864 38.1778 0.209059C37.5894 0.348432 37.0319 0.52652 36.5054 0.743322C35.9943 0.960124 35.522 1.21564 35.0884 1.50987C34.6548 1.78862 34.2599 2.07511 33.9037 2.36934L34.3683 2.92683C34.5851 2.75648 34.7864 2.6326 34.9723 2.55517C35.1736 2.46225 35.4059 2.4158 35.6691 2.4158C36.1647 2.4158 36.5131 2.58614 36.7144 2.92683C36.9312 3.25203 37.0396 3.63918 37.0396 4.08827V34.0534C37.0396 34.2238 37.0628 34.4483 37.1093 34.7271C37.1712 35.0058 37.3106 35.2768 37.5274 35.5401C37.7597 35.8033 38.1081 36.0279 38.5727 36.2137C39.0373 36.415 39.68 36.5157 40.5007 36.5157C41.3215 36.5157 41.9719 36.4228 42.4519 36.2369C42.9475 36.0666 43.3191 35.8575 43.5669 35.6098C43.8302 35.362 43.9928 35.0987 44.0547 34.82Z" fill="black"/>
<path fill-rule="evenodd" clip-rule="evenodd" d="M18.4669 35.9917C19.1018 35.4497 19.4193 34.5825 19.4193 33.3901V5.84075C19.4348 5.60847 19.4735 5.36843 19.5354 5.12066C19.6129 4.8574 19.7367 4.61737 19.9071 4.40057C20.0929 4.16828 20.3407 3.98245 20.6504 3.84308C20.9756 3.68822 21.386 3.61079 21.8815 3.61079C22.5165 3.61079 23.1127 3.80436 23.6702 4.19151C24.2431 4.56317 24.7387 5.08969 25.1568 5.77107C25.5904 6.45245 25.9311 7.28094 26.1789 8.25655C26.4266 9.21667 26.5505 10.2852 26.5505 11.4621C26.5505 13.0262 26.4654 14.4586 26.295 15.7595C26.1401 17.0603 25.8459 18.1365 25.4123 18.9883C24.9942 19.84 24.4057 20.4362 23.6469 20.7769C22.9036 21.1021 21.9512 21.0866 20.7898 20.7304L20.4646 21.7293C21.3008 22.039 22.199 22.2171 23.1591 22.2635C24.1347 22.31 25.1026 22.2171 26.0627 21.9848C27.0228 21.7525 27.952 21.3731 28.8502 20.8466C29.7484 20.3046 30.5381 19.6077 31.2195 18.756C31.9164 17.8888 32.4661 16.8589 32.8688 15.6665C33.2869 14.4741 33.4959 13.1036 33.4959 11.555C33.4959 8.38044 32.3577 5.94915 30.0813 4.2612C27.8049 2.55775 24.4522 1.70603 20.0232 1.70603C18.1959 1.70603 16.4305 1.76797 14.7271 1.89186C13.0391 2.00026 11.4518 2.19383 9.96516 2.47258C8.47851 2.75132 7.1235 3.13073 5.90012 3.61079C4.67673 4.07536 3.62369 4.66383 2.741 5.37618C1.87379 6.08853 1.20015 6.94025 0.720093 7.93135C0.240031 8.90696 0 10.0374 0 11.3228C0 12.0041 0.108401 12.6468 0.325203 13.2507C0.542005 13.8547 0.859466 14.3812 1.27758 14.8303C1.6957 15.2794 2.19899 15.6356 2.78746 15.8988C4.50119 16.6141 3.91011 15.7228 3.5047 15.1115C3.31908 14.8316 3.17238 14.6104 3.30365 14.629C3.36517 14.6377 3.49 14.7796 3.90794 15.2548C4.12141 15.4976 4.41134 15.8272 4.80836 16.2705C5.28842 16.2705 5.76849 16.2008 6.24855 16.0614C6.88003 15.8781 6.25656 15.3129 5.85589 14.9497C5.64942 14.7625 5.50211 14.629 5.61621 14.629C5.76768 14.629 6.07903 14.8757 6.39404 15.1253C6.76608 15.4201 7.14321 15.7189 7.26803 15.6201C7.55342 15.3918 7.9496 14.9994 8.2312 14.629C8.32718 14.4522 7.84759 14.1807 7.47437 13.9693C7.23721 13.835 7.04299 13.7251 7.06672 13.6792C8.38818 14.3399 8.59741 14.0137 8.64465 13.8874C8.78166 13.521 8.85017 13.1074 8.85017 12.6468C8.85017 12.2132 8.78823 11.8493 8.66434 11.555C8.54046 11.2453 8.3856 10.9975 8.19977 10.8117C8.02942 10.6259 7.83585 10.4943 7.61905 10.4168C7.41773 10.3239 7.22416 10.2775 7.03833 10.2775C6.97989 10.2775 6.84837 10.6236 6.69126 11.037C6.4951 11.5532 6.25906 12.1743 6.07562 12.3577C6.038 12.3721 6.14221 12.0436 6.26619 11.6529C6.43708 11.1142 6.64552 10.4572 6.57175 10.4168C6.51942 10.3882 6.4821 10.432 6.4179 10.5073C6.32596 10.6151 6.17889 10.7876 5.85366 10.9046C5.7354 10.9865 5.46218 11.1165 5.20664 11.238C5.02719 11.3234 4.85637 11.4046 4.75416 11.4621C4.69207 11.4932 4.61471 11.7816 4.53198 12.0901C4.43257 12.4608 4.3254 12.8604 4.22764 12.8771C4.16293 12.8882 4.19454 12.6561 4.23237 12.3784C4.27962 12.0314 4.33658 11.6132 4.22764 11.5086C4.15021 11.5086 4.01858 11.4931 3.83275 11.4621C3.66241 11.4157 3.49206 11.3228 3.32172 11.1834C3.15137 11.0285 2.99652 10.804 2.85714 10.5097C2.73326 10.2155 2.67131 9.82062 2.67131 9.32507C2.67131 8.61272 2.89586 7.95457 3.34495 7.35063C3.79404 6.73119 4.36701 6.20467 5.06388 5.77107C5.77623 5.32198 6.56601 4.97354 7.43322 4.72577C8.31591 4.46251 9.18312 4.33088 10.0348 4.33088C11.2118 4.33088 11.8002 4.75674 11.8002 5.60847V33.3901C11.8002 34.5825 12.1099 35.4497 12.7294 35.9917C13.3488 36.5337 14.3089 36.8047 15.6098 36.8047C16.8951 36.8047 17.8475 36.5337 18.4669 35.9917ZM7.81908 12.1648C7.89498 12.1142 7.91549 12.0116 7.86489 11.9357C7.81429 11.8598 7.71173 11.8393 7.63582 11.8899C7.31668 12.1027 7.06897 12.2913 6.83957 12.466C6.33435 12.8508 5.91796 13.1679 5.02318 13.5258C3.80037 14.0149 2.57192 13.2174 2.26795 12.3055C2.2391 12.2189 2.14555 12.1722 2.059 12.201C1.97246 12.2299 1.92569 12.3234 1.95453 12.41C2.31129 13.4802 3.72576 14.4006 5.14587 13.8326C6.0833 13.4576 6.54698 13.105 7.06871 12.7083C7.29379 12.5371 7.52969 12.3577 7.81908 12.1648Z" fill="black"/>
<path fill-rule="evenodd" clip-rule="evenodd" d="M56.8073 13.9373C56.2808 13.9373 55.793 13.9992 55.3439 14.1231C54.8948 14.247 54.5077 14.4019 54.1825 14.5877C53.8573 14.7735 53.6018 14.9826 53.4159 15.2149C53.2301 15.4317 53.1372 15.6407 53.1372 15.842C53.1372 16.0743 53.2533 16.2447 53.4856 16.3531C53.7334 16.446 54.0044 16.5621 54.2986 16.7015C54.5928 16.8254 54.8561 17.0112 55.0884 17.259C55.3362 17.4913 55.4601 17.8552 55.4601 18.3508C55.4601 18.676 55.3904 18.9779 55.251 19.2567C55.1271 19.5199 54.949 19.76 54.7167 19.9768C54.4999 20.1781 54.2367 20.3407 53.927 20.4646C53.6327 20.573 53.323 20.6272 52.9978 20.6272C52.1306 20.6272 51.426 20.3329 50.884 19.7445C50.3575 19.156 50.0942 18.374 50.0942 17.3984C50.0942 16.4537 50.342 15.6485 50.8375 14.9826C51.3331 14.3012 51.9757 13.7437 52.7655 13.3101C53.5708 12.8765 54.4767 12.559 55.4833 12.3577C56.4899 12.1409 57.4965 12.0325 58.503 12.0325C59.7109 12.0325 60.8646 12.1642 61.9641 12.4274C63.0636 12.6907 64.0315 13.1088 64.8677 13.6818C65.7194 14.2547 66.3931 14.9826 66.8886 15.8653C67.3997 16.748 67.6552 17.8165 67.6552 19.0708V32.1951C67.6552 32.3345 67.6629 32.4894 67.6784 32.6597C67.6939 32.83 67.7326 32.9849 67.7946 33.1243C67.8565 33.2636 67.9494 33.3798 68.0733 33.4727C68.1972 33.5656 68.3753 33.6121 68.6076 33.6121C68.8863 33.6121 69.1418 33.5114 69.3741 33.3101C69.6219 33.0933 69.8387 32.8765 70.0245 32.6597L70.6052 33.1475C70.373 33.4727 70.0942 33.8289 69.769 34.216C69.4438 34.6032 69.0489 34.9671 68.5843 35.3078C68.1198 35.6485 67.5778 35.935 66.9583 36.1672C66.3389 36.3995 65.6343 36.5157 64.8445 36.5157C63.8689 36.5157 63.0017 36.2292 62.2429 35.6562C61.4841 35.0678 60.9885 34.1696 60.7562 32.9617C60.2607 33.6276 59.7419 34.1851 59.1999 34.6341C58.6734 35.0832 58.1314 35.4472 57.5739 35.7259C57.0164 36.0046 56.4512 36.206 55.8782 36.3298C55.3207 36.4537 54.7555 36.5157 54.1825 36.5157C53.4392 36.5157 52.7191 36.3995 52.0222 36.1672C51.3253 35.935 50.6982 35.571 50.1407 35.0755C49.5987 34.5645 49.1573 33.9063 48.8166 33.101C48.4914 32.2958 48.3288 31.3124 48.3288 30.151C48.3288 28.7418 48.6076 27.5881 49.1651 26.6899C49.7225 25.7917 50.4504 25.0406 51.3486 24.4367C52.2622 23.8173 53.292 23.2907 54.438 22.8571C55.5994 22.4235 56.7841 21.9667 57.992 21.4866C58.8902 21.1305 59.5406 20.6039 59.9432 19.9071C60.3613 19.1947 60.5704 18.4669 60.5704 17.7236C60.5704 16.5776 60.2297 15.664 59.5483 14.9826C58.8824 14.2857 57.9688 13.9373 56.8073 13.9373ZM60.5007 24.1115C60.5007 23.7244 60.3768 23.4301 60.1291 23.2288C59.8813 23.0275 59.5638 22.9268 59.1767 22.9268C58.6347 22.9268 58.1159 23.0507 57.6203 23.2985C57.1403 23.5463 56.7144 23.9102 56.3428 24.3902C55.9711 24.8703 55.6769 25.4665 55.4601 26.1789C55.2433 26.8757 55.1349 27.6887 55.1349 28.6179C55.1349 29.5161 55.1968 30.2594 55.3207 30.8479C55.4601 31.4363 55.6381 31.9086 55.8549 32.2648C56.0872 32.6055 56.3505 32.8455 56.6447 32.9849C56.939 33.1243 57.2487 33.194 57.5739 33.194C57.9765 33.194 58.3559 33.0933 58.7121 32.892C59.0683 32.6752 59.378 32.4042 59.6412 32.079C59.9045 31.7538 60.1136 31.3899 60.2684 30.9872C60.4233 30.5846 60.5007 30.182 60.5007 29.7793V24.1115Z" fill="black"/>
<path d="M87.1209 19.9071C87.3067 21.0685 87.3997 22.6249 87.3997 24.5761C87.3997 26.4654 87.3532 28.1223 87.2603 29.547C87.1829 30.9563 87.0512 32.1796 86.8654 33.2172C86.6951 34.2547 86.486 35.122 86.2382 35.8188C85.9905 36.5002 85.704 37.0654 85.3788 37.5145C85.0536 37.9636 84.6896 38.3043 84.287 38.5366C83.8999 38.7689 83.474 38.9392 83.0094 39.0476L83.2649 40C83.8224 39.9845 84.4806 39.8916 85.2394 39.7213C86.0137 39.5664 86.8189 39.2799 87.6552 38.8618C88.4914 38.4437 89.3199 37.863 90.1407 37.1196C90.9614 36.3918 91.697 35.4472 92.3474 34.2857C92.9978 33.1243 93.5243 31.7151 93.927 30.0581C94.3296 28.4011 94.5309 26.4499 94.5309 24.2044C94.5309 21.897 94.3838 19.969 94.0896 18.4204C93.7953 16.8564 93.3695 15.602 92.812 14.6574C92.2545 13.7127 91.5654 13.0391 90.7446 12.6365C89.9393 12.2338 89.0102 12.0325 87.9572 12.0325C87.4771 12.0325 87.0048 12.0945 86.5402 12.2184C86.0911 12.3422 85.6575 12.5126 85.2394 12.7294C84.8368 12.9307 84.4496 13.163 84.0779 13.4262C83.7218 13.6895 83.3966 13.9605 83.1023 14.2393C82.3745 14.8897 81.7241 15.6252 81.1511 16.446C81.1511 16.1053 81.1201 15.6872 81.0582 15.1916C81.0117 14.6806 80.8569 14.1928 80.5936 13.7282C80.3304 13.2636 79.92 12.8688 79.3625 12.5436C78.805 12.2029 78.023 12.0325 77.0164 12.0325C76.366 12.0325 75.7466 12.1022 75.1581 12.2416C74.5696 12.381 74.0199 12.559 73.5088 12.7758C72.9978 12.9926 72.5177 13.2482 72.0687 13.5424C71.6351 13.8211 71.2402 14.1076 70.884 14.4019L71.3718 14.9826C71.5886 14.8122 71.7899 14.6806 71.9757 14.5877C72.1616 14.4948 72.3861 14.4483 72.6494 14.4483C73.1449 14.4483 73.4934 14.6187 73.6947 14.9593C73.9115 15.2846 74.0199 15.6717 74.0199 16.1208V34.0534C74.0199 34.2238 74.0508 34.4483 74.1128 34.7271C74.1747 35.0058 74.3296 35.2768 74.5774 35.5401C74.8251 35.8033 75.1813 36.0279 75.6459 36.2137C76.126 36.415 76.7764 36.5157 77.5971 36.5157C78.4179 36.5157 79.0605 36.4228 79.5251 36.2369C80.0052 36.0666 80.3613 35.8575 80.5936 35.6098C80.8414 35.3465 80.9963 35.0755 81.0582 34.7967C81.1201 34.5025 81.1511 34.2547 81.1511 34.0534V18.5366C81.275 18.3817 81.4221 18.1494 81.5925 17.8397C81.7783 17.53 81.9951 17.2203 82.2429 16.9106C82.5061 16.6009 82.8081 16.3298 83.1488 16.0976C83.505 15.8498 83.9076 15.7259 84.3567 15.7259C84.7284 15.7259 85.0923 15.8266 85.4484 16.0279C85.8046 16.2137 86.1298 16.6163 86.4241 17.2358C86.7183 17.8397 86.9506 18.7302 87.1209 19.9071Z" fill="black"/>
<path d="M106.865 14.0302V31.1963C106.865 32.017 107.02 32.59 107.33 32.9152C107.64 33.2249 108.066 33.3798 108.608 33.3798C109.026 33.3798 109.397 33.2636 109.723 33.0314C110.048 32.7991 110.326 32.5358 110.559 32.2416C110.838 31.9164 111.078 31.537 111.279 31.1034L111.999 31.4286C111.767 31.9241 111.488 32.4661 111.163 33.0546C110.853 33.6431 110.435 34.1928 109.908 34.7038C109.382 35.1994 108.716 35.6175 107.911 35.9582C107.121 36.2989 106.122 36.4692 104.914 36.4692C104.233 36.4692 103.575 36.3686 102.94 36.1672C102.32 35.9659 101.763 35.6485 101.267 35.2149C100.787 34.7813 100.4 34.2393 100.106 33.5889C99.8116 32.9384 99.6645 32.1564 99.6645 31.2427V14.0302H97.0629V12.3577C97.4965 12.3577 98.1004 12.2493 98.8747 12.0325C99.649 11.8002 100.439 11.4208 101.244 10.8943C102.065 10.3678 102.824 9.66318 103.52 8.78049C104.217 7.89779 104.713 6.80604 105.007 5.50523H106.865V12.3577H110.652C111.891 12.3577 112.51 12.1487 112.51 11.7305C112.51 11.5757 112.433 11.475 112.278 11.4286C112.123 11.3666 111.945 11.2969 111.743 11.2195C111.558 11.1266 111.387 11.0027 111.232 10.8479C111.078 10.693 111 10.4375 111 10.0813C111 9.6477 111.132 9.30701 111.395 9.05923C111.674 8.81146 112.03 8.68757 112.464 8.68757C112.742 8.68757 112.982 8.74952 113.184 8.8734C113.4 8.9818 113.579 9.13666 113.718 9.33798C113.857 9.52381 113.958 9.74061 114.02 9.98839C114.097 10.2362 114.136 10.4839 114.136 10.7317C114.136 11.7383 113.842 12.5436 113.253 13.1475C112.68 13.736 111.751 14.0302 110.466 14.0302H106.865Z" fill="black"/>
<path fill-rule="evenodd" clip-rule="evenodd" d="M120.663 14.1231C121.112 13.9992 121.6 13.9373 122.127 13.9373C123.288 13.9373 124.202 14.2857 124.868 14.9826C125.549 15.664 125.89 16.5776 125.89 17.7236C125.89 18.4669 125.681 19.1947 125.263 19.9071C124.86 20.6039 124.21 21.1305 123.311 21.4866C122.103 21.9667 120.919 22.4235 119.757 22.8571C118.611 23.2907 117.582 23.8173 116.668 24.4367C115.77 25.0406 115.042 25.7917 114.484 26.6899C113.927 27.5881 113.648 28.7418 113.648 30.151C113.648 31.3124 113.811 32.2958 114.136 33.101C114.477 33.9063 114.918 34.5645 115.46 35.0755C116.018 35.571 116.645 35.935 117.342 36.1672C118.038 36.3995 118.759 36.5157 119.502 36.5157C120.075 36.5157 120.64 36.4537 121.198 36.3298C121.771 36.206 122.336 36.0046 122.893 35.7259C123.451 35.4472 123.993 35.0832 124.519 34.6341C125.061 34.1851 125.58 33.6276 126.076 32.9617C126.308 34.1696 126.803 35.0678 127.562 35.6562C128.321 36.2292 129.188 36.5157 130.164 36.5157C130.954 36.5157 131.658 36.3995 132.278 36.1672C132.897 35.935 133.439 35.6485 133.904 35.3078C134.368 34.9671 134.763 34.6032 135.088 34.216C135.414 33.8289 135.692 33.4727 135.925 33.1475L135.344 32.6597C135.158 32.8765 134.941 33.0933 134.694 33.3101C134.461 33.5114 134.206 33.6121 133.927 33.6121C133.695 33.6121 133.517 33.5656 133.393 33.4727C133.269 33.3798 133.176 33.2636 133.114 33.1243C133.052 32.9849 133.013 32.83 132.998 32.6597C132.982 32.4894 132.975 32.3345 132.975 32.1951V19.0708C132.975 17.8165 132.719 16.748 132.208 15.8653C131.712 14.9826 131.039 14.2547 130.187 13.6818C129.351 13.1088 128.383 12.6907 127.284 12.4274C126.184 12.1642 125.03 12.0325 123.822 12.0325C122.816 12.0325 121.809 12.1409 120.803 12.3577C119.796 12.559 118.89 12.8765 118.085 13.3101C117.295 13.7437 116.652 14.3012 116.157 14.9826C115.661 15.6485 115.414 16.4537 115.414 17.3984C115.414 18.374 115.677 19.156 116.203 19.7445C116.745 20.3329 117.45 20.6272 118.317 20.6272C118.642 20.6272 118.952 20.573 119.246 20.4646C119.556 20.3407 119.819 20.1781 120.036 19.9768C120.268 19.76 120.447 19.5199 120.57 19.2567C120.71 18.9779 120.779 18.676 120.779 18.3508C120.779 17.8552 120.656 17.4913 120.408 17.259C120.176 17.0112 119.912 16.8254 119.618 16.7015C119.324 16.5621 119.053 16.446 118.805 16.3531C118.573 16.2447 118.457 16.0743 118.457 15.842C118.457 15.6407 118.549 15.4317 118.735 15.2149C118.921 14.9826 119.177 14.7735 119.502 14.5877C119.827 14.4019 120.214 14.247 120.663 14.1231ZM125.448 23.2288C125.696 23.4301 125.82 23.7244 125.82 24.1115V29.7793C125.82 30.182 125.743 30.5846 125.588 30.9872C125.433 31.3899 125.224 31.7538 124.961 32.079C124.697 32.4042 124.388 32.6752 124.031 32.892C123.675 33.0933 123.296 33.194 122.893 33.194C122.568 33.194 122.258 33.1243 121.964 32.9849C121.67 32.8455 121.407 32.6055 121.174 32.2648C120.958 31.9086 120.779 31.4363 120.64 30.8479C120.516 30.2594 120.454 29.5161 120.454 28.6179C120.454 27.6887 120.563 26.8757 120.779 26.1789C120.996 25.4665 121.29 24.8703 121.662 24.3902C122.034 23.9102 122.46 23.5463 122.94 23.2985C123.435 23.0507 123.954 22.9268 124.496 22.9268C124.883 22.9268 125.201 23.0275 125.448 23.2288Z" fill="black"/>
<path d="M146.471 16.9338C147.059 16.0356 147.686 15.2226 148.352 14.4948C148.631 14.1851 148.933 13.8831 149.258 13.5889C149.583 13.2946 149.916 13.0314 150.257 12.7991C150.613 12.5668 150.977 12.381 151.349 12.2416C151.72 12.1022 152.092 12.0325 152.464 12.0325C153.253 12.0325 153.873 12.2726 154.322 12.7526C154.771 13.2172 154.995 13.8753 154.995 14.7271C154.995 15.2536 154.949 15.7646 154.856 16.2602C154.779 16.7402 154.616 17.3287 154.368 18.0256H153.718C153.625 17.5455 153.408 17.1506 153.067 16.8409C152.727 16.5157 152.231 16.3531 151.581 16.3531C151.101 16.3531 150.628 16.446 150.164 16.6318C149.699 16.8022 149.242 17.019 148.793 17.2822C148.36 17.5455 147.942 17.832 147.539 18.1417C147.152 18.4514 146.796 18.7456 146.471 19.0244V34.0999C146.471 34.3012 146.44 34.5412 146.378 34.82C146.316 35.0987 146.161 35.362 145.913 35.6098C145.681 35.8575 145.325 36.0666 144.844 36.2369C144.38 36.4228 143.737 36.5157 142.917 36.5157C142.096 36.5157 141.445 36.415 140.965 36.2137C140.501 36.0279 140.145 35.8033 139.897 35.5401C139.649 35.2768 139.494 35.0058 139.432 34.7271C139.37 34.4483 139.339 34.2238 139.339 34.0534V16.1208C139.339 15.6717 139.231 15.2846 139.014 14.9593C138.813 14.6187 138.464 14.4483 137.969 14.4483C137.706 14.4483 137.481 14.4948 137.295 14.5877C137.109 14.6806 136.908 14.8122 136.691 14.9826L136.203 14.4019C136.56 14.1076 136.954 13.8211 137.388 13.5424C137.837 13.2482 138.317 12.9926 138.828 12.7758C139.339 12.559 139.889 12.381 140.477 12.2416C141.066 12.1022 141.685 12.0325 142.336 12.0325C143.002 12.0325 143.567 12.1254 144.031 12.3113C144.512 12.4816 144.899 12.7139 145.193 13.0081C145.503 13.2869 145.743 13.6043 145.913 13.9605C146.083 14.3167 146.207 14.6806 146.285 15.0523C146.378 15.4084 146.432 15.7569 146.447 16.0976C146.463 16.4228 146.471 16.7015 146.471 16.9338Z" fill="black"/>
<path d="M165.263 34.7967C165.34 34.5025 165.379 34.2547 165.379 34.0534V15.8885C165.379 15.5478 165.348 15.1529 165.286 14.7038C165.239 14.2547 165.085 13.8366 164.821 13.4495C164.558 13.0468 164.148 12.7139 163.59 12.4506C163.033 12.1719 162.251 12.0325 161.244 12.0325C160.594 12.0325 159.974 12.1022 159.386 12.2416C158.797 12.381 158.248 12.559 157.736 12.7758C157.225 12.9926 156.745 13.2482 156.296 13.5424C155.863 13.8211 155.468 14.1076 155.112 14.4019L155.599 14.9826C155.816 14.8122 156.018 14.6806 156.203 14.5877C156.389 14.4948 156.614 14.4483 156.877 14.4483C157.373 14.4483 157.721 14.6187 157.922 14.9593C158.139 15.2846 158.248 15.6717 158.248 16.1208V34.0534C158.248 34.2238 158.271 34.4483 158.317 34.7271C158.379 35.0058 158.526 35.2768 158.759 35.5401C158.991 35.8033 159.339 36.0279 159.804 36.2137C160.268 36.415 160.911 36.5157 161.732 36.5157C162.553 36.5157 163.203 36.4228 163.683 36.2369C164.163 36.0666 164.527 35.8575 164.775 35.6098C165.038 35.3465 165.201 35.0755 165.263 34.7967Z" fill="black"/>
<path d="M157.806 5.50523C157.62 5.89237 157.527 6.30275 157.527 6.73635C157.527 7.18544 157.62 7.60356 157.806 7.99071C158.007 8.37786 158.278 8.71854 158.619 9.01278C158.975 9.29152 159.378 9.51607 159.827 9.68641C160.292 9.85676 160.795 9.94193 161.337 9.94193C161.863 9.94193 162.351 9.85676 162.8 9.68641C163.265 9.51607 163.668 9.29152 164.008 9.01278C164.349 8.71854 164.612 8.37786 164.798 7.99071C164.999 7.60356 165.1 7.18544 165.1 6.73635C165.1 6.30275 164.999 5.89237 164.798 5.50523C164.612 5.10259 164.349 4.75416 164.008 4.45993C163.668 4.1657 163.265 3.93341 162.8 3.76307C162.351 3.59272 161.863 3.50755 161.337 3.50755C160.795 3.50755 160.292 3.59272 159.827 3.76307C159.378 3.93341 158.975 4.1657 158.619 4.45993C158.278 4.75416 158.007 5.10259 157.806 5.50523Z" fill="black"/>
<path d="M191.558 32.1022C191.558 32.2416 191.565 32.3964 191.581 32.5668C191.596 32.7216 191.635 32.8765 191.697 33.0314C191.759 33.1707 191.852 33.2869 191.976 33.3798C192.1 33.4727 192.278 33.5192 192.51 33.5192C192.804 33.5192 193.068 33.4185 193.3 33.2172C193.532 33.0004 193.749 32.7836 193.95 32.5668L194.508 33.0546C194.275 33.3798 193.981 33.7437 193.625 34.1463C193.284 34.5335 192.866 34.9052 192.371 35.2613C191.875 35.6175 191.31 35.9117 190.675 36.144C190.04 36.3918 189.32 36.5157 188.515 36.5157C187.833 36.5157 187.237 36.4228 186.726 36.2369C186.23 36.0666 185.805 35.8343 185.448 35.5401C185.108 35.2304 184.852 34.8742 184.682 34.4715C184.512 34.0534 184.426 33.6121 184.426 33.1475V32.1022C183.652 32.9384 182.839 33.674 181.987 34.3089C181.616 34.5877 181.221 34.8587 180.803 35.122C180.385 35.3852 179.951 35.6252 179.502 35.842C179.053 36.0434 178.588 36.206 178.108 36.3298C177.628 36.4537 177.148 36.5157 176.668 36.5157C175.739 36.5157 174.941 36.3531 174.275 36.0279C173.625 35.6872 173.098 35.2458 172.696 34.7038C172.293 34.1618 171.999 33.5501 171.813 32.8688C171.627 32.1874 171.534 31.506 171.534 30.8246V16.446C171.534 16.3066 171.527 16.1595 171.511 16.0046C171.496 15.8343 171.457 15.6794 171.395 15.5401C171.333 15.3852 171.24 15.2613 171.116 15.1684C170.992 15.0755 170.814 15.029 170.582 15.029C170.303 15.029 170.04 15.1374 169.792 15.3542C169.56 15.5556 169.351 15.7646 169.165 15.9814L168.584 15.4936C168.817 15.1684 169.103 14.8122 169.444 14.4251C169.8 14.0225 170.226 13.6431 170.721 13.2869C171.217 12.9307 171.782 12.6365 172.417 12.4042C173.067 12.1564 173.788 12.0325 174.577 12.0325C175.259 12.0325 175.855 12.1254 176.366 12.3113C176.877 12.4816 177.303 12.7216 177.644 13.0314C177.984 13.3256 178.24 13.6818 178.41 14.0999C178.58 14.5025 178.666 14.9361 178.666 15.4007V30.9175C178.666 31.1343 178.697 31.3589 178.759 31.5912C178.836 31.808 178.937 32.0093 179.061 32.1951C179.2 32.381 179.37 32.5358 179.572 32.6597C179.773 32.7681 180.013 32.8223 180.292 32.8223C180.741 32.8223 181.19 32.7062 181.639 32.4739C182.088 32.2416 182.498 31.9706 182.87 31.6609C183.242 31.3357 183.559 31.0182 183.822 30.7085C184.101 30.3988 184.302 30.1665 184.426 30.0116V16.446C184.426 16.3066 184.419 16.1595 184.403 16.0046C184.388 15.8343 184.349 15.6794 184.287 15.5401C184.225 15.3852 184.132 15.2613 184.008 15.1684C183.884 15.0755 183.706 15.029 183.474 15.029C183.195 15.029 182.932 15.1374 182.684 15.3542C182.452 15.5556 182.243 15.7646 182.057 15.9814L181.476 15.4936C181.709 15.1684 181.995 14.8122 182.336 14.4251C182.692 14.0225 183.118 13.6431 183.613 13.2869C184.109 12.9307 184.674 12.6365 185.309 12.4042C185.959 12.1564 186.68 12.0325 187.469 12.0325C188.151 12.0325 188.747 12.1254 189.258 12.3113C189.769 12.4816 190.195 12.7216 190.536 13.0314C190.876 13.3256 191.132 13.6818 191.302 14.0999C191.472 14.5025 191.558 14.9361 191.558 15.4007V32.1022Z" fill="black"/>
<path d="M217.435 34.82C217.496 34.5412 217.527 34.3012 217.527 34.0999V18.5366C217.636 18.3817 217.814 18.1494 218.062 17.8397C218.309 17.53 218.604 17.2203 218.944 16.9106C219.301 16.6009 219.68 16.3298 220.083 16.0976C220.501 15.8498 220.919 15.7259 221.337 15.7259C221.585 15.7259 221.802 15.7878 221.987 15.9117C222.173 16.0201 222.32 16.1672 222.429 16.3531C222.553 16.5389 222.645 16.748 222.707 16.9803C222.769 17.1971 222.8 17.4139 222.8 17.6307V33.1475C222.8 33.6121 222.886 34.0534 223.056 34.4715C223.226 34.8742 223.482 35.2304 223.822 35.5401C224.179 35.8343 224.604 36.0666 225.1 36.2369C225.611 36.4228 226.207 36.5157 226.889 36.5157C227.694 36.5157 228.414 36.3918 229.049 36.144C229.699 35.9117 230.265 35.6175 230.745 35.2613C231.24 34.9052 231.666 34.5335 232.022 34.1463C232.378 33.7437 232.665 33.3798 232.882 33.0546L232.324 32.5668C232.123 32.7836 231.906 33.0004 231.674 33.2172C231.441 33.4185 231.178 33.5192 230.884 33.5192C230.667 33.5192 230.489 33.4727 230.35 33.3798C230.226 33.2869 230.133 33.1707 230.071 33.0314C230.009 32.8765 229.97 32.7216 229.955 32.5668C229.939 32.3964 229.932 32.2416 229.932 32.1022V17.7236C229.932 17.0422 229.839 16.3608 229.653 15.6794C229.483 14.9981 229.204 14.3864 228.817 13.8444C228.429 13.3024 227.918 12.8688 227.284 12.5436C226.649 12.2029 225.882 12.0325 224.984 12.0325C224.519 12.0325 224.055 12.0945 223.59 12.2184C223.141 12.3422 222.692 12.5126 222.243 12.7294C221.809 12.9307 221.391 13.163 220.989 13.4262C220.586 13.6895 220.214 13.9605 219.874 14.2393C219.053 14.8897 218.271 15.6252 217.527 16.446C217.527 16.0743 217.435 15.6407 217.249 15.1452C217.078 14.6341 216.8 14.1541 216.412 13.705C216.025 13.2404 215.514 12.8455 214.879 12.5203C214.244 12.1951 213.478 12.0325 212.58 12.0325C212.115 12.0325 211.651 12.0945 211.186 12.2184C210.721 12.3422 210.272 12.5126 209.839 12.7294C209.405 12.9307 208.979 13.163 208.561 13.4262C208.158 13.6895 207.787 13.9605 207.446 14.2393C206.61 14.8897 205.828 15.6252 205.1 16.446C205.1 16.1053 205.069 15.6872 205.007 15.1916C204.961 14.6806 204.806 14.1928 204.543 13.7282C204.279 13.2636 203.869 12.8688 203.311 12.5436C202.754 12.2029 201.972 12.0325 200.965 12.0325C200.315 12.0325 199.695 12.1022 199.107 12.2416C198.519 12.381 197.969 12.559 197.458 12.7758C196.947 12.9926 196.467 13.2482 196.018 13.5424C195.584 13.8211 195.189 14.1076 194.833 14.4019L195.321 14.9826C195.537 14.8122 195.739 14.6806 195.925 14.5877C196.11 14.4948 196.335 14.4483 196.598 14.4483C197.094 14.4483 197.442 14.6187 197.644 14.9593C197.86 15.2846 197.969 15.6717 197.969 16.1208V34.0534C197.969 34.2238 198 34.4483 198.062 34.7271C198.124 35.0058 198.278 35.2768 198.526 35.5401C198.774 35.8033 199.13 36.0279 199.595 36.2137C200.075 36.415 200.725 36.5157 201.546 36.5157C202.367 36.5157 203.009 36.4228 203.474 36.2369C203.954 36.0666 204.31 35.8575 204.543 35.6098C204.79 35.362 204.945 35.0987 205.007 34.82C205.069 34.5412 205.1 34.3012 205.1 34.0999V18.5366C205.208 18.3817 205.387 18.1494 205.634 17.8397C205.898 17.53 206.2 17.2203 206.54 16.9106C206.896 16.6009 207.276 16.3298 207.678 16.0976C208.081 15.8498 208.491 15.7259 208.91 15.7259C209.157 15.7259 209.374 15.7878 209.56 15.9117C209.746 16.0201 209.901 16.1672 210.025 16.3531C210.148 16.5389 210.241 16.748 210.303 16.9803C210.365 17.1971 210.396 17.4139 210.396 17.6307V34.0534C210.396 34.2238 210.427 34.4483 210.489 34.7271C210.551 35.0058 210.698 35.2768 210.93 35.5401C211.178 35.8033 211.534 36.0279 211.999 36.2137C212.479 36.415 213.129 36.5157 213.95 36.5157C214.771 36.5157 215.421 36.4228 215.901 36.2369C216.381 36.0666 216.738 35.8575 216.97 35.6098C217.218 35.362 217.373 35.0987 217.435 34.82Z" fill="black"/>
</svg>
